<svg xmlns="http://www.w3.org/2000/svg" width="1100" height="280" viewBox="0 0 1100 280">
  <rect width="1100" height="280" rx="24" fill="#f3f6fa"/>
  <defs>
    <filter id="shadow" x="-20%" y="-20%" width="140%" height="150%">
      <feDropShadow dx="0" dy="8" stdDeviation="10" flood-color="#27496d" flood-opacity=".08"/>
    </filter>
    <style>
      .tile{fill:#fff;stroke:#dbe4ee;stroke-width:1.5;filter:url(#shadow)}
      .icon{fill:none;stroke:#667a92;stroke-width:3;stroke-linecap:round;stroke-linejoin:round}
      .accent{fill:#fff;stroke:#2e7bd6;stroke-width:3;stroke-linecap:round;stroke-linejoin:round}
      .num{font:700 20px Arial,sans-serif;fill:#2e7bd6;text-anchor:middle}
    </style>
  </defs>

  <g transform="translate(25 20)">
    <rect class="tile" width="190" height="240" rx="20"/>
    <g class="icon" transform="translate(58 55)">
      <path d="M18 12c-8 8-8 28 0 36"/>
      <path d="M21 11l10 10-7 8c7 13 14 20 27 27l8-7 10 10c-4 9-11 13-20 10C25 61 8 44 7 24 6 16 11 9 21 11z"/>
      <path class="accent" d="M47 12h20M60 4l8 8-8 8"/>
    </g>
    <circle cx="95" cy="205" r="20" fill="#edf5ff"/>
    <text class="num" x="95" y="212">1</text>
  </g>

  <g transform="translate(240 20)">
    <rect class="tile" width="190" height="240" rx="20"/>
    <g class="icon" transform="translate(55 52)">
      <path d="M11 43V31C11 13 25 4 40 4s29 9 29 27v12"/>
      <path d="M11 33H5v20h15V33h-9zM69 33h6v20H60V33h9z"/>
      <path d="M66 54c-2 11-10 16-23 16"/>
      <path class="accent" d="M54 13l3 7 7 3-7 3-3 7-3-7-7-3 7-3z"/>
    </g>
    <circle cx="95" cy="205" r="20" fill="#edf5ff"/>
    <text class="num" x="95" y="212">2</text>
  </g>

  <g transform="translate(455 20)">
    <rect class="tile" width="190" height="240" rx="20"/>
    <g class="icon" transform="translate(55 54)">
      <circle cx="40" cy="24" r="13"/>
      <path d="M16 69c2-16 12-25 24-25s22 9 24 25"/>
      <path class="accent" d="M13 7H5v12M67 7h8v12M13 71H5V59M67 71h8V59"/>
    </g>
    <circle cx="95" cy="205" r="20" fill="#edf5ff"/>
    <text class="num" x="95" y="212">3</text>
  </g>

  <g transform="translate(670 20)">
    <rect class="tile" width="190" height="240" rx="20"/>
    <g class="icon" transform="translate(55 52)">
      <path d="M6 9h68L49 37v24l-18 10V37z"/>
      <circle class="accent" cx="59" cy="14" r="8"/>
      <path class="accent" d="M59 10v8M55 14h8"/>
    </g>
    <circle cx="95" cy="205" r="20" fill="#edf5ff"/>
    <text class="num" x="95" y="212">4</text>
  </g>

  <g transform="translate(885 20)">
    <rect class="tile" width="190" height="240" rx="20"/>
    <g class="icon" transform="translate(55 50)">
      <rect x="10" y="8" width="52" height="64" rx="6"/>
      <path d="M25 8V3h22v5M21 27h28M21 39h20M21 51h13"/>
      <circle class="accent" cx="58" cy="56" r="12"/>
      <path class="accent" d="M67 65l9 9"/>
    </g>
    <circle cx="95" cy="205" r="20" fill="#edf5ff"/>
    <text class="num" x="95" y="212">5</text>
  </g>
</svg>
